<svg xmlns="http://www.w3.org/2000/svg" xmlns:xlink="http://www.w3.org/1999/xlink" width="33" height="33" version="1.1" viewBox="0 0 33 33"><title>Group 9</title><desc>Created with Sketch.</desc><defs><path id="path-1" d="M6.46769187,8.36994056 C8.62154006,2.78998019 10.469452,0 12.0114278,0 C13.5534035,0 15.4013155,2.78998019 17.5551637,8.36994056 L17.5551637,27.3647566 L6.46769187,27.3647566 L6.46769187,8.36994056 Z"/><polygon id="path-2" points="18.479 15.377 24.023 27.135 18.479 27.135"/><polygon id="path-3" points="0 15.377 5.544 27.135 0 27.135"/><path id="path-4" d="M8.70462784,28.0399665 L15.3367843,28.0399665 C15.7789281,28.9991787 16,29.9583909 16,30.9176031 C16,34.5146488 12.7407034,40.3083606 12.0207061,40.3083606 C11.3007088,40.3083606 8.04141219,34.5146488 8.04141219,30.9176031 C8.04141219,29.9583909 8.26248407,28.9991787 8.70462784,28.0399665 Z"/></defs><g id="Page-1" fill="none" fill-rule="evenodd" stroke="none" stroke-width="1"><g id="Landingpage" transform="translate(-289.000000, -1644.000000)"><g id="Group-9" transform="translate(283.000000, 1635.000000)"><g id="Group-5" transform="translate(24.326779, 24.318157) rotate(-315.000000) translate(-24.326779, -24.318157) translate(11.826779, 3.818157)"><g id="Rectangle-10"><use fill="#FFF" fill-rule="evenodd" xlink:href="#path-1"/><path stroke="#979797" stroke-width=".8" d="M6.86769185,8.44456696 L6.86769185,26.9647566 L17.1551637,26.9647566 L17.1551637,8.44456696 C15.0810378,3.08772017 13.2953466,0.399999976 12.0114278,0.399999976 C10.7275089,0.399999976 8.94181772,3.08772017 6.86769185,8.44456773 Z"/></g><g id="Rectangle-11"><use fill="#FFF" fill-rule="evenodd" xlink:href="#path-2"/><path stroke="#979797" stroke-width=".8" d="M18.8791196,17.1631823 L18.8791196,26.7354514 L23.3920464,26.7354514 L18.8791196,17.1631823 Z"/></g><g id="Rectangle-11-Copy" transform="translate(2.771868, 21.256104) scale(-1, 1) translate(-2.771868, -21.256104)"><use fill="#FFF" fill-rule="evenodd" xlink:href="#path-3"/><path stroke="#979797" stroke-width=".8" d="M0.399999976,17.1631823 L0.399999976,26.7354514 L4.91292674,26.7354514 L0.399999976,17.1631823 Z"/></g><path id="Path-4" stroke="#979797" stroke-width=".8"/><g id="Rectangle-12"><use fill="#FFF" fill-rule="evenodd" xlink:href="#path-4"/><path stroke="#979797" stroke-width=".8" d="M8.96525059,28.4399664 C8.61536675,29.269504 8.44141217,30.0945819 8.44141217,30.9176031 C8.44141217,33.7991728 11.3537239,39.9083606 12.0207061,39.9083606 C12.6876883,39.9083606 15.6,33.7991728 15.6,30.9176031 C15.6,30.0945819 15.4260454,29.269504 15.0761616,28.4399664 L8.96525059,28.4399664 Z"/></g><circle id="Oval-2" cx="11.923" cy="10.485" r="2" stroke="#58D471"/></g><path id="Line-3" stroke="#DEDEDE" stroke-linecap="round" d="M8.5,32.5 L11.5,29.5"/><path id="Line-3-Copy-2" stroke="#DEDEDE" stroke-linecap="round" d="M15.5,39.5 L18.5,36.5"/><path id="Line-3-Copy" stroke="#DEDEDE" stroke-linecap="round" d="M6.5,41.5 L8.62132034,39.3786797"/></g></g></g></svg>