<svg xmlns="http://www.w3.org/2000/svg" xmlns:xlink="http://www.w3.org/1999/xlink" width="35" height="35" version="1.1" viewBox="0 0 35 35"><title>Group 6</title><desc>Created with Sketch.</desc><defs><rect id="path-1" width="25" height="8" x="2" y="1" rx="2"/><rect id="path-2" width="25" height="8" x="2" y="10" rx="2"/><rect id="path-3" width="25" height="8" x="2" y="20" rx="2"/><polygon id="path-4" points=".502 29 29 .502 28.498 0 0 28.498"/></defs><g id="Page-1" fill="none" fill-rule="evenodd" stroke="none" stroke-width="1"><g id="Landingpage" transform="translate(-39.000000, -1640.000000)"><g id="Group-6" transform="translate(42.000000, 1643.000000)"><path id="Line" stroke="#979797" stroke-linecap="round" d="M15,4.3544649 L15,23.2419067"/><g id="Rectangle-8"><use fill="#FFF" fill-rule="evenodd" xlink:href="#path-1"/><rect width="24" height="7" x="2.5" y="1.5" stroke="#979797" stroke-width="1" rx="2"/></g><g id="Rectangle-8-Copy"><use fill="#FFF" fill-rule="evenodd" xlink:href="#path-2"/><rect width="24" height="7" x="2.5" y="10.5" stroke="#979797" stroke-width="1" rx="2"/></g><g id="Rectangle-8-Copy-2"><use fill="#FFF" fill-rule="evenodd" xlink:href="#path-3"/><rect width="24" height="7" x="2.5" y="20.5" stroke="#979797" stroke-width="1" rx="2"/></g><g id="Line-2" fill-rule="nonzero"><use fill="#58D471" fill-rule="evenodd" xlink:href="#path-4"/><path stroke="#FFF" stroke-width="2" d="M0.502091406,30.4142136 L-1.41421356,28.4979086 L28.4979086,-1.41421356 L30.4142136,0.502091406 L0.502091406,30.4142136 Z"/></g><rect id="Rectangle-9" width="2" height="1" x="23" y="22" fill="#DEDEDE"/><rect id="Rectangle-9-Copy" width="2" height="1" x="23" y="12" fill="#DEDEDE"/></g></g></g></svg>