<svg xmlns="http://www.w3.org/2000/svg" xmlns:xlink="http://www.w3.org/1999/xlink" width="32" height="26" version="1.1" viewBox="0 0 32 26"><title>Group 10</title><desc>Created with Sketch.</desc><g id="Page-1" fill="none" fill-rule="evenodd" stroke="none" stroke-linecap="round" stroke-linejoin="round" stroke-width="1"><g id="Landingpage" transform="translate(-224.000000, -1644.000000)"><g id="Group-11" transform="translate(224.000000, 1645.000000)"><g id="Group-10"><g id="Group-7" stroke="#979797" transform="translate(23.000000, 0.000000)"><path id="Path-5-Copy-2" d="M9,12.008086 C5.29253272,11.8841186 3.43879908,13.1855737 3.43879908,15.9124513 C3.43879908,18.6393289 3.43879908,20.1049617 3.43879908,20.3093496 C3.49173908,22.7751739 2.34547272,24.008086 0,24.008086" transform="translate(4.500000, 18.004043) scale(-1, -1) translate(-4.500000, -18.004043)"/><path id="Path-5-Copy-3" d="M9,0.00808597948 C5.29253272,-0.11588142 3.43879908,1.18557368 3.43879908,3.91245129 C3.43879908,6.63932889 3.43879908,8.10496167 3.43879908,8.30934962 C3.49173908,10.7751739 2.34547272,12.008086 0,12.008086" transform="translate(4.500000, 6.004043) scale(-1, 1) translate(-4.500000, -6.004043)"/></g><g id="Group-7-Copy" stroke="#979797" transform="translate(4.500000, 12.500000) scale(-1, 1) translate(-4.500000, -12.500000)"><path id="Path-5-Copy-2" d="M9,12.008086 C5.29253272,11.8841186 3.43879908,13.1855737 3.43879908,15.9124513 C3.43879908,18.6393289 3.43879908,20.1049617 3.43879908,20.3093496 C3.49173908,22.7751739 2.34547272,24.008086 0,24.008086" transform="translate(4.500000, 18.004043) scale(-1, -1) translate(-4.500000, -18.004043)"/><path id="Path-5-Copy-3" d="M9,0.00808597948 C5.29253272,-0.11588142 3.43879908,1.18557368 3.43879908,3.91245129 C3.43879908,6.63932889 3.43879908,8.10496167 3.43879908,8.30934962 C3.49173908,10.7751739 2.34547272,12.008086 0,12.008086" transform="translate(4.500000, 6.004043) scale(-1, 1) translate(-4.500000, -6.004043)"/></g><path id="Oval-4" stroke="#979797" d="M11,18 C12.0089341,19 13.2385763,20 16,20 C18.7614237,20 20.042574,19 21,18"/><path id="Oval-4-Copy" stroke="#979797" d="M10,7 C10.3026802,7.5 10.6715729,8 11.5,8 C12.3284271,8 12.7127722,7.5 13,7" transform="translate(11.500000, 7.500000) scale(1, -1) translate(-11.500000, -7.500000)"/><path id="Oval-4-Copy-2" stroke="#979797" d="M19,7 C19.3026802,7.5 19.6715729,8 20.5,8 C21.3284271,8 21.7127722,7.5 22,7" transform="translate(20.500000, 7.500000) scale(1, -1) translate(-20.500000, -7.500000)"/><polyline id="Rectangle-13" stroke="#58D471" points="16 10.686 18.5 13.186 16 15.686"/></g></g></g></g></svg>