<svg xmlns="http://www.w3.org/2000/svg" xmlns:xlink="http://www.w3.org/1999/xlink" id="Layer_1" x="0" y="0" version="1.1" viewBox="0 0 494 455" xml:space="preserve" style="enable-background:new 0 0 494 455"><style type="text/css">.st0{fill:#7a858c}.st1{fill:#525b61}.st2{opacity:.8}.st3{opacity:.6}</style><g><path d="M2.6,261.2c-2.5,7.7,0.2,16.2,6.8,21l238.5,173.3L30.1,176.4L2.6,261.2z" class="st0"/><path d="M493.3,261.2l-27.6-84.8L247.9,455.5l0,0l217.8-279.1l0,0L411,8.3c-2.9-8.6-15.1-8.6-17.9,0l-54.6,168.1H157.2 l0,0l0,0L102.6,8.3c-2.8-8.6-15-8.6-17.9,0L30.1,176.4l0,0l217.7,279v0.1l0,0l0,0l0,0l0,0l0,0l0,0l0,0l238.6-173.3 C493.1,277.4,495.8,268.9,493.3,261.2z" class="st0"/></g><g id="gitlab_logo" transform="translate(-359.000000, -360.000000)"><g id="g10" transform="translate(999.999975, 587.666648) scale(1, -1) translate(-999.999975, -587.666648) translate(0.000000, 0.999996)"><g id="g16"><g id="g18-Clipped"><g id="g18"><g transform="translate(358.666658, 358.666658)"><g id="g48" transform="translate(155.197863, 1.160267)"><path id="path50" d="M92,0L92,0l90.7,279.1H1.3L92,0L92,0z" class="st1"/></g><g id="g56" class="st2" transform="translate(28.531199, 1.160800)"><path id="path58" d="M218.7,0L128,279.1H0.9L218.7,0L218.7,0z" class="st1"/></g><g id="g64" class="st3" transform="translate(0.088533, 0.255867)"><path id="path66" d="M29.3,280L29.3,280L1.8,195.2c-2.5-7.7,0.2-16.2,6.8-21 L247.1,0.9L29.3,280L29.3,280z" class="st1"/></g><g id="g72" transform="translate(29.421866, 280.255593)"><path id="path74" d="M0,0h127.1L72.5,168.1c-2.8,8.6-15,8.6-17.9,0L0,0L0,0z" class="st1"/></g><g id="g76" class="st2" transform="translate(247.197860, 1.160800)"><path id="path78" d="M0,0l90.7,279.1h127.1L0,0L0,0z" class="st1"/></g><g id="g80" class="st3" transform="translate(246.307061, 0.255867)"><path id="path82" d="M218.7,280L218.7,280l27.6-84.8c2.5-7.7-0.2-16.2-6.8-21 L0.9,0.9L218.7,280L218.7,280z" class="st1"/></g><g id="g84" transform="translate(336.973725, 280.255593)"><path id="path86" d="M128,0H0.9l54.6,168.1c2.8,8.6,15,8.6,17.9,0L128,0L128,0z" class="st1"/></g></g></g></g></g></g></g></svg>