<svg xmlns="http://www.w3.org/2000/svg" xmlns:xlink="http://www.w3.org/1999/xlink" id="Layer_1" x="0" y="0" version="1.1" viewBox="0 0 62.4 63.3" xml:space="preserve" style="enable-background:new 0 0 62.4 63.3"><style type="text/css">.st0{fill:#69747c}.st1{fill:none}.st2{fill:url(#SVGID_1_)}.st3{fill:url(#SVGID_2_)}.st4{fill:url(#SVGID_3_)}</style><title>Bitbucket-blue</title><polygon points="24.7 43.5 37.8 43.5 40.9 25.1 21.2 25.1" class="st1"/><polygon points="40.9 25.1 21.2 25.1 24.8 43.5 37.8 43.5" class="st1"/><path d="M60.7,6.3c-0.1,0-0.2,0-0.3,0H2c-1.1,0-2,0.9-2,2c0,0.1,0,0.2,0,0.3l8.5,51.5c0.2,1.1,1.1,2,2.2,2.2	c-0.5-0.1-0.9-0.3-1.3-0.6l15.3-18.2l-3.5-18.4h19.7h18.8l-2.5,15.1l5.2-31.6C62.5,7.5,61.8,6.5,60.7,6.3z" class="st0"/><linearGradient id="SVGID_1_" x1="59.508" x2="28.488" y1="1158.502" y2="1182.712" gradientTransform="matrix(1 0 0 1 0 -1134)" gradientUnits="userSpaceOnUse"><stop offset=".18" style="stop-color:#000"/><stop offset="1" style="stop-color:#000;stop-opacity:.8"/></linearGradient><path d="M11.2,62.4c-0.2,0-0.3,0-0.5,0C10.8,62.4,11,62.4,11.2,62.4z" class="st2"/><linearGradient id="SVGID_2_" x1="70.767" x2="39.747" y1="1172.928" y2="1197.138" gradientTransform="matrix(1 0 0 1 0 -1134)" gradientUnits="userSpaceOnUse"><stop offset=".18" style="stop-color:#000"/><stop offset="1" style="stop-color:#000;stop-opacity:.8"/></linearGradient><path d="M51.9,62.4L51.9,62.4c1,0,1.9-0.7,2-1.7l3.3-20.5l-3.3,20.5C53.7,61.7,52.9,62.4,51.9,62.4z" class="st3"/><linearGradient id="SVGID_3_" x1="63.965" x2="32.945" y1="1164.212" y2="1188.422" gradientTransform="matrix(1 0 0 1 0 -1134)" gradientUnits="userSpaceOnUse"><stop offset=".18" style="stop-color:#525b61"/><stop offset="1" style="stop-color:#69747c"/></linearGradient><path d="M40.9,25.1l-3.2,18.4h-13L9.4,61.7c0.4,0.3,0.8,0.5,1.3,0.6c0.2,0,0.3,0,0.5,0h40.7c1,0,1.8-0.7,2-1.7l3.3-20.5	L59.7,25H40.9V25.1z" class="st4"/></svg>