<svg xmlns="http://www.w3.org/2000/svg" xmlns:xlink="http://www.w3.org/1999/xlink" id="Logo_FIXED" x="0" y="0" version="1.1" viewBox="0 0 251 204.6" xml:space="preserve" style="enable-background:new 0 0 251 204.6"><style type="text/css">.st0{fill:none}.st1{fill:#1da1f2}</style><title>Twitter_Logo_Blue</title><rect width="400" height="400" x="-74.6" y="-97.7" class="st0"/><path d="M79,203.9c94.4,0,146-78.2,146-145.9c0-2.2,0-4.4-0.1-6.6c10-7.3,18.7-16.3,25.6-26.5	c-9.4,4.1-19.3,6.9-29.5,8.1c10.7-6.4,18.7-16.5,22.5-28.4c-10.1,6-21.1,10.2-32.6,12.4C191.5-3.7,159-4.7,138.3,14.7	c-13.3,12.5-19,31.2-14.8,49C82.3,61.6,43.8,42.2,17.8,10.1C4.2,33.6,11.1,63.5,33.7,78.6c-8.2-0.2-16.1-2.4-23.3-6.4	c0,0.2,0,0.4,0,0.6c0,24.4,17.2,45.4,41.2,50.3c-7.6,2.1-15.5,2.4-23.2,0.9c6.7,20.9,26,35.2,47.9,35.6c-18.2,14.3-40.6,22-63.7,22	c-4.1,0-8.2-0.3-12.2-0.7C23.8,195.9,51.1,203.9,79,203.9" class="st1"/></svg>